<?xml version="1.0" encoding="utf-8"?>
<svg xmlns="http://www.w3.org/2000/svg" xmlns:xlink="http://www.w3.org/1999/xlink" style="margin: auto; background: rgb(255, 255, 255); display: block; z-index: 1; position: relative; shape-rendering: auto;" width="1440" height="793" preserveAspectRatio="xMidYMid" viewBox="0 0 1440 793">
<g transform=""><g transform="translate(142.6277723259376,102.3141561687736) scale(100)" opacity="0.88">
  <path d="M6.220800000000001 0 C6.220800000000001 2.721600000000001 5.72657473893973 4.47551840118409 3.3696000000000015 5.83631840118409 S-0.7534252610602703 6.748170831862238 -3.1103999999999994 5.3873708318622375 S-6.739200000000001 2.721600000000002 -6.739200000000001 8.253139708813844e-16 S-5.467374738939732 -4.026570831862234 -3.1104000000000034 -5.387370831862236 S1.0126252610602662 -7.197118401184091 3.369599999999996 -5.8363184011840925 S6.2208000000000006 -2.7216000000000022 6.220800000000001 -1.5236565616271714e-15" fill="#c40000" stroke-width="0" transform="rotate(98.8066)">
    <animateTransform attributeName="transform" type="rotate" dur="10s" repeatCount="indefinite" values="0;120"></animateTransform>
  </path>
</g><g transform="translate(27.153326791125096,43.47698740252832) scale(100)" opacity="0.88">
  <path d="M7.464960000000001 0 C7.464960000000001 3.265920000000001 6.871889686727676 5.370622081420907 4.043520000000002 7.003582081420908 S-0.9041103132723243 8.097804998234684 -3.732479999999999 6.4648449982346845 S-8.087040000000002 3.2659200000000017 -8.087040000000002 9.903767650576613e-16 S-6.560849686727678 -4.831884998234681 -3.732480000000004 -6.464844998234683 S1.2151503132723196 -8.63654208142091 4.043519999999996 -7.0035820814209115 S7.4649600000000005 -3.2659200000000026 7.464960000000001 -1.8283878739526054e-15" fill="#191717" stroke-width="0" transform="rotate(77.6133)">
    <animateTransform attributeName="transform" type="rotate" dur="5s" repeatCount="indefinite" values="0;120"></animateTransform>
  </path>
</g></g>
</svg>