<?xml version="1.0" encoding="utf-8"?>
<!-- Generator: Adobe Illustrator 21.0.0, SVG Export Plug-In . SVG Version: 6.00 Build 0)  -->
<svg version="1.1" id="圖層_1" xmlns="http://www.w3.org/2000/svg" xmlns:xlink="http://www.w3.org/1999/xlink" x="0px" y="0px"
	 viewBox="0 0 993.6 160" style="enable-background:new 0 0 993.6 160;" xml:space="preserve">
<style type="text/css">
	.st0{fill:#C60000;}
</style>
<g transform="translate(425.000000, 1.000000)">
	<path d="M565.8,32.6h-43.2v-11H506v11h-45.2v42.2c0,21-4.2,40.4-9.9,53.8l14,9.6c4.7-12.2,7.7-25,9.3-42.5l7.8,8.9
		c2.2-2.9,3.6-5.4,6-9.3V138h13.8V70.7c2.9-6.5,5-12.2,6.9-18.9l-13.8-3.7c-4.5,15.8-11.5,29.1-20.3,42c0.4-6,0.5-11.1,0.5-15.3
		V46.7h90.7V32.6L565.8,32.6z"/>
	<path d="M568.6,63.6h-13.9v-14h-14.5v14h-33.1V78h33.1v39.5c0,2.6-1.4,3.8-4.1,3.8c-1.4,0-13.4-0.9-13.4-0.9l1.9,15.3h19.1
		c7.3,0,11-4.2,11-12.5V78h13.9V63.6L568.6,63.6z"/>
	<path d="M517.9,82l-11,7c5.1,7.4,8.3,12.9,14,22.4l12-8.3C527.2,95.2,523.4,89.2,517.9,82z"/>
</g>
<g transform="translate(285.000000, 0.000000)">
	<path d="M548.3,104.9c7.1-12.2,11.1-22.4,13.6-46.9h7.7V43.6h-34.5c1.9-5,5.4-13.6,6.8-19.4l-14.2-3.3c-5,17.8-10.9,29.6-16.6,41.9
		l-13.6-0.2l0.1-19.3h16.6l-0.1-14H455l0.1,14H483l0,65.7c-3.4,0.9-3.8,1.1-7.5,2.1V58.6H462v55.7l-11.8,3l4.8,15.3
		c22.1-5.5,46.3-14.3,61.6-21.5l-1.7-13.3c-4.1,1.9-12,4.4-17.5,6.4v-27h6.5l-2,2.6l11.4,8.2c2-3.1,3.4-4.9,5.4-9.3
		c4,13.1,6.6,16.6,11.7,25.3c-8.6,9-14.5,13.6-27.9,21.9l9.3,13.3c11.1-8.5,19.9-16.8,27-23.3c5.9,6.6,13.3,15.5,22.3,23.2l9.7-12.8
		C561,118.7,554.3,112.7,548.3,104.9z M538.9,94.3c-5.8-11.2-8.9-17.7-11-32.6c0.6-1.1,1.1-2,1.8-3.7h17.7
		C546,75.5,544.6,82.2,538.9,94.3z"/>
</g>
<g transform="translate(149.000000, 0.000000)">
	<path d="M563.8,59.7h-29v-9.6h24.5v-13h-24.5v-16h-15.2v16H496v13h23.6v9.6h-26.5v13.6H533v8.4h-39.9v14.4H533v23.3
		c0,2.9-1.4,4.3-4.1,4.3c-1,0-9.8-0.8-9.8-0.8l1.9,15.9h16.3c7.3,0,11-4.3,11-13V96.2h15V81.8h-15v-8.4h15.4L563.8,59.7L563.8,59.7z
		"/>
	<path d="M490.1,34h-39.4v88.8h39.4V34z M464.9,70.4V46.6H476v23.8C476,70.4,464.9,70.4,464.9,70.4z M464.9,109.4V83.3H476v26.1
		H464.9z"/>
	<path d="M508.5,99.2l-10.8,6.6c4,5.6,6.8,10.8,11.4,18.9l11.9-7.5C516.4,110.4,512.9,105.2,508.5,99.2z"/>
</g>
<g transform="translate(0.000000, 5.000000)">
	<path d="M523.7,69.3l22.4,0.1v-7.9h-23.5V69c-2.2-0.9-3.1-1.2-4.7-2.1v-20h32.4v21h14.4V36.6h-46.8v-4.8h41.2V20.9h-98.4v10.8h41.2
		v4.8h-45.8v31.4h14.4v-21h31.4v20.3c-1.5,0.9-3.1,1.4-4.7,2v-7.7h-22.8v7.9h22.2C483,76.2,465.5,81,450.7,83l4.8,13
		c3.6-0.9,7.3-1.8,11.7-3.2v10.3h65.3c-7.5,4.8-12,7.3-21.9,11.4c2.5,6.5,9.9,7,15.8,3.8c12.2-6.5,21-12.2,27.7-18.4v-6.5
		c4,1.1,7.1,1.9,10.2,2.6l5-13.1C554.9,81.1,538.6,76.1,523.7,69.3z M548.6,91.9h-30.8c0-4.4,0-10.5,0-10.5h-15.9c0,0,0,6.6,0,10.5
		h-31.2c16.7-5.2,28.4-11,39.3-17.1C522.2,81.3,533.6,86.8,548.6,91.9z"/>
	<path d="M511.2,114.7c-11.9-4-14.8-4.9-24.8-7.9l-5.5,10.5l52.8,19.8l6-12.7c0,0-7-2.4-13-4.5C519.7,116.2,521.4,115.6,511.2,114.7
		z"/>
	<path d="M546.1,50.7h-23.9v8.2h23.9V50.7z"/>
	<path d="M497.7,50.7h-23.4v8.2h23.4V50.7z"/>
</g>
<path d="M55.2,58.9c19.6,0,33.5,2.9,43.5,6.7V49.5c-8.4-2.7-21.8-5.6-43.1-5.6c-27.2,0-40.1,5.5-46.6,11.9c-6,6-9,13.9-9,24.2
	s3.1,18.2,9,24.2c6.5,6.6,19.2,11.9,45.7,11.9c21.2,0,34.3-3,42.3-11c4.4-4.4,6.7-10.7,6.7-21.4v-8.9H44.6v13.4h41.5
	c0.1,1.5,0.1,5.1-2.3,7.5c-4.3,4.3-15,5.8-29.1,5.8c-17.3,0-26.3-3.2-30.5-7.4c-3.1-3.2-4.7-7.7-4.7-14c0-6.1,1.7-10.9,5.1-14.3
	C28.3,61.9,37.4,58.9,55.2,58.9C55.2,58.9,37.4,58.9,55.2,58.9L55.2,58.9L55.2,58.9z"/>
<path d="M387.2,46.4H365l-35.5,52.9l-35.4-52.9H271l46.4,67.2h23.5l0,0L387.2,46.4L387.2,46.4z"/>
<path class="st0" d="M265.2,0h-19.1L121.4,160h19.4L265.2,0z"/>
<path d="M238.7,56c-6.3-6.3-18.5-12.1-45.3-12.1c-25.8,0-39,5.7-45.4,12.1c-5.9,5.9-9,13.2-9,24s3.2,18,9,23.9
	c6.3,6.3,19.1,12.2,45.4,12.2s39-5.8,45.3-12.1c5.9-5.9,9-13.2,9-24C247.7,69,244.5,61.8,238.7,56z M193.4,101.5
	c-17.3,0-26.2-3.6-30-7.4c-3-3-5.1-6.8-5.1-14.1s1.8-11.2,5-14.4c3.9-3.9,12.9-7.1,30.1-7.1s25.9,3.3,30,7.3
	c3.2,3.2,5.1,6.9,5.1,14.2s-1.8,11.2-5,14.4C219.4,98.4,210.7,101.5,193.4,101.5z"/>
</svg>
