<?xml version="1.0" encoding="utf-8"?>
<svg xmlns="http://www.w3.org/2000/svg" xmlns:xlink="http://www.w3.org/1999/xlink" style="margin: auto; background: rgb(255, 255, 255); display: block; z-index: 1; position: relative; shape-rendering: auto;" width="1440" height="793" preserveAspectRatio="xMidYMid" viewBox="0 0 1440 793">
<g transform=""><g transform="translate(1540.2230525210562,-54.421438959205545) scale(100)" opacity="0.88">
  <path d="M8.9856 0 C8.9856 3.9312 8.271719067357385 6.464637690599238 4.8672 8.430237690599238 S-1.0882809326426126 9.747357868245452 -4.492799999999998 7.781757868245452 S-9.734399999999999 3.9312000000000014 -9.734399999999999 1.1921201801619994e-15 S-7.8973190673573885 -5.8161578682454484 -4.4928000000000035 -7.7817578682454505 S1.4626809326426065 -10.395837690599238 4.867199999999993 -8.430237690599242 S8.985599999999998 -3.9312000000000022 8.9856 -2.2008372556836913e-15" fill="#131415" stroke-width="0" transform="rotate(46.8068)">
    <animateTransform attributeName="transform" type="rotate" dur="10s" repeatCount="indefinite" values="0;120"></animateTransform>
  </path>
</g><g transform="translate(1704.2676630252677,-144.60572675104663) scale(100)" opacity="0.88">
  <path d="M10.782720000000001 0 C10.782720000000001 4.717440000000001 9.926062880828864 7.757565228719087 5.840640000000001 10.116285228719088 S-1.3059371191711344 11.696829441894543 -5.391359999999998 9.338109441894543 S-11.681280000000001 4.7174400000000025 -11.681280000000001 1.4305442161943995e-15 S-9.476782880828868 -6.979389441894539 -5.391360000000005 -9.338109441894542 S1.755217119171128 -12.475005228719091 5.8406399999999925 -10.116285228719093 S10.78272 -4.717440000000003 10.782720000000001 -2.64100470682043e-15" fill="#db0000" stroke-width="0" transform="rotate(93.6136)">
    <animateTransform attributeName="transform" type="rotate" dur="5s" repeatCount="indefinite" values="0;120"></animateTransform>
  </path>
</g></g>
</svg>