<?xml version="1.0" encoding="utf-8"?><svg xml:space="preserve" viewBox="0 0 100 100" y="0" x="0" xmlns="http://www.w3.org/2000/svg" id="Layer_1" version="1.1" width="128px" height="128px" xmlns:xlink="http://www.w3.org/1999/xlink" style="width:100%;height:100%;background-size:initial;background-repeat-y:initial;background-repeat-x:initial;background-position-y:initial;background-position-x:initial;background-origin:initial;background-color:initial;background-clip:initial;background-attachment:initial;animation-play-state:paused" ><g class="ldl-scale" style="transform-origin:50% 50%;transform:scale(0.8);animation-play-state:paused" ><g id="XMLID_10_" style="animation-play-state:paused" ><path d="M90.628 5H79.834L9.372 95h10.957z" fill="#c42026" style="fill:rgb(196, 32, 38);animation-play-state:paused" ></path></g>
<g id="XMLID_7_" style="animation-play-state:paused" ><path fill="#010101" d="M75.377 36.615c-3.545-3.582-10.366-6.838-25.35-6.838-14.447 0-21.805 3.202-25.403 6.838-3.276 3.31-5.049 7.435-5.049 13.567s1.772 10.202 5.048 13.513c3.545 3.582 10.688 6.892 25.403 6.892s21.805-3.256 25.35-6.838c3.276-3.31 5.049-7.435 5.049-13.567 0-6.187-1.772-10.257-5.048-13.567zm-25.35 25.227c-9.6 0-14.56-1.986-16.694-4.133-1.654-1.664-2.827-3.811-2.827-7.891s1.013-6.281 2.773-8.052c2.187-2.201 7.147-3.972 16.747-3.972s14.4 1.825 16.64 4.08c1.76 1.772 2.827 3.865 2.827 7.945 0 4.079-1.013 6.281-2.773 8.052-2.239 2.253-7.093 3.971-16.693 3.971z" style="fill:rgb(255, 255, 255);animation-play-state:paused" ></path></g>
<metadata xmlns:d="https://loading.io/stock/" style="animation-play-state:paused" ><d:name style="animation-play-state:paused" >g0v</d:name>


<d:tags style="animation-play-state:paused" >g0v,civic tech,open government,open data,open source,hackathon,code for all</d:tags>


<d:license style="animation-play-state:paused" >by</d:license>


<d:slug style="animation-play-state:paused" >ep7yl8</d:slug></metadata></g><!-- generated by https://loading.io/ --></svg>