<svg xmlns="http://www.w3.org/2000/svg" viewBox="0 0 223 247"><defs><style>.cls-1{fill:#c60000;}</style></defs><g id="圖層_2" data-name="圖層 2"><g id="Layer_1" data-name="Layer 1"><path class="cls-1" d="M223,0H193.4L0,247H30.1Z"/><path d="M179.1,86.8C169.4,77,150.7,68,109.5,68c-39.6,0-59.8,8.8-69.7,18.8-9,9.1-13.9,20.4-13.9,37.2s4.9,28,13.9,37.1c9.7,9.8,29.3,18.9,69.7,18.9s59.8-8.9,69.6-18.8c9-9.1,13.9-20.4,13.9-37.2C193,107,188.1,95.9,179.1,86.8ZM109.6,156c-26.3,0-40-5.5-45.8-11.3C59.3,140.1,56,134.2,56,123s2.8-17.2,7.6-22.1c6-6,19.6-10.9,46-10.9s39.5,5,45.7,11.2c4.8,4.9,7.8,10.6,7.8,21.8s-2.8,17.2-7.6,22.1C149.2,151.3,135.9,156,109.6,156Z"/></g></g></svg>